<svg xmlns="http://www.w3.org/2000/svg" viewBox="0 0 114.46 114.41"><defs><style>.cls-1{fill:#faed23;}</style></defs><title>Ресурс 8</title><g id="Слой_2" data-name="Слой 2"><g id="Слой_1-2" data-name="Слой 1"><circle class="cls-1" cx="57.23" cy="57.21" r="52.02"/><path d="M33.31,0V5l2.09.88,3.36-3.42c.8.5,8.71,8.3,10.59,10.43l-3.48,3.48.86,2h4.88v14.9c-1.57,0-3.16,0-4.84,0l-1,2.13,3.42,3.34c-.46.75-8.86,9.23-10.37,10.49l-3.47-3.42-2.09.9v4.78c-1,.19-13.89.2-14.9,0V46.77l-2-.88L13,49.33,2.48,38.76l3.37-3.37L5,33.31H0v-15H5l.86-2.22L2.55,12.84,12.91,2.48l3.37,3.36L18.33,5V0ZM36,41.3c1,.91,1.88,1.93,2.84,2.74L44,39a.19.19,0,0,0,0-.1,1.18,1.18,0,0,0,0-.14c-.88-.92-1.83-1.8-2.73-2.77A23.84,23.84,0,0,0,44,29.52c.72,0,1.39,0,2.06,0a11.46,11.46,0,0,0,2-.06,43.46,43.46,0,0,0-.12-7.36H43.93a23.56,23.56,0,0,0-2.66-6.45c.94-1,1.91-1.9,2.85-2.89l-5.22-5L36,10.41a25.91,25.91,0,0,0-6.44-2.68c-.1-1.36.06-2.66-.09-3.9H22.14V7.75a27.73,27.73,0,0,0-6.52,2.65L13,7.64l-5.3,5.29,2.7,2.74a26,26,0,0,0-2.67,6.43c-1.37.11-2.66-.06-3.93.1v7.31H7.74a29,29,0,0,0,2.65,6.58c-.86,1.06-1.88,1.82-2.68,2.84l5,5.19,2.92-2.85a23.11,23.11,0,0,0,6.44,2.67c.1,1.37,0,2.73.08,4.05h7.33V43.92A23.55,23.55,0,0,0,36,41.3ZM91.22,0a2.54,2.54,0,0,0,.58.21,24.87,24.87,0,0,1,9.79,3.28,27.37,27.37,0,0,1,5,3.73,25.48,25.48,0,0,1,3.68,4.45A24.2,24.2,0,0,1,113,17.23a28,28,0,0,1,1.28,5.36,26.16,26.16,0,0,1,.19,4,24.7,24.7,0,0,1-2.21,9.75,25.2,25.2,0,0,1-6,8.45,25.62,25.62,0,0,1-8.65,5.31,29.33,29.33,0,0,1-5.46,1.35,24.11,24.11,0,0,1-6,.14,26.08,26.08,0,0,1-18.73-11,25.89,25.89,0,0,1-4.48-17.26,25.36,25.36,0,0,1,5-12.84A26.08,26.08,0,0,1,76.1,3.23a24.21,24.21,0,0,1,8-2.83c.58-.1,1.25.05,1.76-.4ZM75.45,15.34c-1.23-1.16-2.45-2.48-3.77-3.71a23.7,23.7,0,0,0-3.49,5.78c-.91,2.16-1.63,5.34-1.43,6.52,1.73,0,3.46,0,5.24,0,0,.7,0,1.29,0,1.88a7.17,7.17,0,0,1-.09,1.87c-.92,0-1.77,0-2.63,0a15.12,15.12,0,0,0-2.68.09A22,22,0,0,0,71.75,40.1L73,38.83c.42-.42.84-.85,1.27-1.26a8.25,8.25,0,0,1,1.37-1.25c.44.47.85.9,1.25,1.34A5.22,5.22,0,0,1,78.1,39c-.63.62-1.26,1.2-1.85,1.81a13.85,13.85,0,0,0-1.81,1.92c3.7,3,9.72,5.46,12.31,4.94,0-1.73,0-3.46,0-5.23.71,0,1.3,0,1.89,0a6,6,0,0,1,1.86.11c0,.91,0,1.77,0,2.62a12.9,12.9,0,0,0,.1,2.67,22,22,0,0,0,12.2-5.13L99,38.95l2.34-2.4a1.29,1.29,0,0,1,.34-.16c1.35,1.13,2.46,2.53,3.85,3.68a22.33,22.33,0,0,0,5.1-12.34c-.92,0-1.81,0-2.69,0a25.85,25.85,0,0,1-2.69,0c0-.67,0-1.26,0-1.85a6,6,0,0,1,.11-1.87c.91,0,1.77,0,2.62,0a18.35,18.35,0,0,0,2.63-.07,21.86,21.86,0,0,0-5.15-12.27l-3.76,3.73-2.61-2.58L102.89,9A21.85,21.85,0,0,0,90.53,3.84c0,1,0,1.83,0,2.69a14,14,0,0,1-.08,2.63H86.75c0-.93,0-1.82,0-2.7a14.37,14.37,0,0,0-.08-2.62,21.49,21.49,0,0,0-6.48,1.58A19.34,19.34,0,0,0,74.39,9l1.89,1.9,1.8,1.84ZM42.86,84.8a7.73,7.73,0,0,1-4-2.23,7.22,7.22,0,0,1-2-4.82c0-4.4-.07-8.79,0-13.19a11.58,11.58,0,0,1,7.42-10.49,3.06,3.06,0,0,0,1.29-1A13.88,13.88,0,0,1,52,48.74a14.89,14.89,0,0,1,4.8-.7,19.76,19.76,0,0,1,9.27,2.26,20.83,20.83,0,0,1,4.47,3.09,21.15,21.15,0,0,1,5.17,7,21.57,21.57,0,0,1,1.69,6,67.12,67.12,0,0,1,.19,7.46c0,1,0,2.09,0,3.13a7.52,7.52,0,0,1-6,7.75,15.13,15.13,0,0,1-7,9.24,1,1,0,0,0,0,.19c0,.07,0,.14,0,.21s.12.1.18.11c1.66.32,3.33.62,5,.95s3.53.72,5.3,1.1a12.78,12.78,0,0,1,6.68,3.73,13.14,13.14,0,0,1,3.1,5.45c.83,2.85,1.63,5.72,2.46,8.64H27.09c.53-1.9,1-3.77,1.59-5.63.45-1.52.91-3,1.47-4.51a11.83,11.83,0,0,1,3.62-5,14.16,14.16,0,0,1,6.71-3c2.42-.45,4.83-1,7.25-1.48.68-.14,1.37-.25,2.05-.37l.09-.42a17.78,17.78,0,0,1-4.42-4A17.16,17.16,0,0,1,42.86,84.8ZM40.7,71.06a8.56,8.56,0,0,1,2.84-.86,14.36,14.36,0,0,0,4.25-.66,10.06,10.06,0,0,0,3.52-1.82c1.24-1.06,2.39-2.24,3.58-3.36.18-.17.38-.31.65-.52.26.3.48.56.71.8A18,18,0,0,0,60.51,68a16.48,16.48,0,0,0,5.73,1.93,29.21,29.21,0,0,0,4,.23,7.2,7.2,0,0,1,3,.68c.15.07.32.12.55.21a26.19,26.19,0,0,0-.26-5.27,17.51,17.51,0,0,0-4.31-8.5,16.73,16.73,0,0,0-6.89-4.54,15.78,15.78,0,0,0-7.06-.92,10.5,10.5,0,0,0-7.84,5c-1,.44-2,.76-2.83,1.23a7.11,7.11,0,0,0-3.86,5.76C40.52,66.2,40.7,68.6,40.7,71.06Zm5.42,34.6-1.23,5h.79l23.69,0s.06,0,.08-.06l.11-.13a23,23,0,0,1-.63-2.41,8.27,8.27,0,0,1-.47-2.44l3.49-.85,1.51,5.87h8.83a1.85,1.85,0,0,0,0-.46c-.41-1.41-.74-2.86-1.27-4.23a9,9,0,0,0-7.14-5.82c-2.45-.48-4.9-1-7.35-1.5-.72-.14-1.45-.24-2.22-.36-1.25,3.25-3.64,5.1-7,5.11s-5.84-1.82-7.09-5.07a8.4,8.4,0,0,0-1.06.07c-2.92.58-5.85,1.14-8.76,1.77a9.12,9.12,0,0,0-6.57,5,25,25,0,0,0-1.38,4.19c-.12.41-.19.83-.29,1.3H41c.59-1.95.91-3.91,1.56-5.85ZM55.44,69c-.22.2-.42.37-.6.55a14.56,14.56,0,0,1-3.71,2.62,11.57,11.57,0,0,1-3.21,1.14c-.56.1-1.11.28-1.66.42,0,2.83,0,5.55,0,8.26a8.62,8.62,0,0,0,.85,3.52,10.72,10.72,0,0,0,3.18,4.21A11.51,11.51,0,0,0,57,92.31a10.52,10.52,0,0,0,4.82-1.05,10.21,10.21,0,0,0,3.35-2.35,11.54,11.54,0,0,0,3-6.73q0-3.91,0-7.82a3.75,3.75,0,0,0-.07-.53A20.68,20.68,0,0,1,55.44,69ZM53.7,95.62a3.55,3.55,0,0,0,3.7,4.06,3.46,3.46,0,0,0,3.31-4.05A17.88,17.88,0,0,1,53.7,95.62ZM42.43,74.48a3.6,3.6,0,0,0,0,6.17ZM72,80.65c2.4-1.43,2.27-5,0-6.09ZM14.76,56q0,21.06,0,42.11a8.72,8.72,0,0,0,2.4,5.93,22.44,22.44,0,0,0,3.43,2.82l2.28,1.69,2.21-2.9c-.28-.25-.49-.47-.72-.64-1-.75-2-1.48-3-2.25a6.63,6.63,0,0,1-2.61-3.35,7.51,7.51,0,0,1-.19-2.2q0-20.28,0-40.55c0-.4,0-.8,0-1.22H14.79C14.77,55.72,14.76,55.86,14.76,56Zm77.32,52.2c1.34-1,2.71-1.95,4-3a9.52,9.52,0,0,0,3.64-7.75q0-20.44,0-40.89V55.4c-1.31.08-2.52-.08-3.77.1v1.29q0,20.05,0,40.1a15,15,0,0,1,0,1.56,4.73,4.73,0,0,1-1.61,3.29c-1.31,1.09-2.69,2.1-4,3.15-.31.24-.59.52-.9.79l2.18,2.83A5.32,5.32,0,0,0,92.08,108.21ZM22.19,75.75V96.1c.64,0,1.23,0,1.81,0s1.26.18,1.87-.19V75.78A11,11,0,0,0,22.19,75.75ZM92.33,95.56q0-9.87,0-19.74a.19.19,0,0,0,0-.1l-.11-.11H89c-.1,0-.2.09-.34.17V95.91c.13.07.23.17.33.17h3.34C92.3,95.85,92.33,95.71,92.33,95.56ZM88.62,72c.65,0,1.25,0,1.84,0a8.08,8.08,0,0,0,1.82-.07V68.24c-1.22,0-2.4,0-3.73,0C88.58,69.6,88.49,70.78,88.62,72ZM22.2,72c1.27-.08,2.48.09,3.67-.1V68.45c-.11-.08-.16-.16-.22-.16H22.2ZM25.79,36.9a11.07,11.07,0,1,1,11.13-11A11.12,11.12,0,0,1,25.79,36.9Zm7.34-11.1a7.33,7.33,0,0,0-7.33-7.3,7.53,7.53,0,0,0-7.3,7.38,7.46,7.46,0,0,0,7.38,7.29A7.28,7.28,0,0,0,33.13,25.81Zm60.49,2.42-3.09-3.09c0-2.91,0-5.72,0-8.53H86.8v9.91L91,30.8Z"/></g></g></svg>