<svg xmlns="http://www.w3.org/2000/svg" viewBox="0 0 114.03 114.02"><defs><style>.cls-1{fill:#faed23;}</style></defs><title>Ресурс 7</title><g id="Слой_2" data-name="Слой 2"><g id="Слой_1-2" data-name="Слой 1"><circle class="cls-1" cx="57.02" cy="57.01" r="52.02"/><path d="M114,4.23a2.6,2.6,0,0,0-.19.59,86.6,86.6,0,0,1-2.12,13.1,99.35,99.35,0,0,1-4.81,15.29A77.94,77.94,0,0,1,97.26,50.5a70.57,70.57,0,0,1-8.44,9.29c-.84.78-1.72,1.52-2.63,2.31.16.34.29.67.46,1a20.24,20.24,0,0,1,2.15,6.13,13.81,13.81,0,0,1,.09,1.66,15.43,15.43,0,0,1-3.56,10.69,26.08,26.08,0,0,1-7.91,6.55,35.36,35.36,0,0,1-8.71,3.5,26.27,26.27,0,0,1-7.11,1,2.19,2.19,0,0,1-2.16-1.26,2.3,2.3,0,0,1,.4-2.58A29.78,29.78,0,0,0,62,86a13,13,0,0,0,1.78-5.2,10.7,10.7,0,0,0-.1-3.93l-.48-.45a1.46,1.46,0,0,0-.41,0c-1.45.54-2.88,1.15-4.35,1.63-2.24.73-4.51,1.4-6.78,2a5.6,5.6,0,0,1-3.22-.34c-.15.24-.31.47-.45.73a19.6,19.6,0,0,1-4.71,6,19.08,19.08,0,0,1-5.49,3.08,49.14,49.14,0,0,1-8.51,2.38c-1.59.31-3.21.48-4.82.71a4.59,4.59,0,0,1-.89,0,2.17,2.17,0,0,1-2.12-2.14,17.09,17.09,0,0,1,.24-2.87c.32-1.89.67-3.78,1.08-5.65A39.52,39.52,0,0,1,25,75a17.11,17.11,0,0,1,6.58-7.77c.86-.56,1.77-1.07,2.72-1.64-.06-.18-.13-.38-.19-.58a6.45,6.45,0,0,1,.06-3.61,100.56,100.56,0,0,1,3.37-9.95c.05-.13.09-.28.14-.46l-.59-.69a13.15,13.15,0,0,0-9.23,1.85,21.93,21.93,0,0,0-2.73,2.08,2.38,2.38,0,0,1-3.21-.2,2.45,2.45,0,0,1-.54-1.53,25.66,25.66,0,0,1,.53-5.06,29.41,29.41,0,0,1,1.35-5,33.8,33.8,0,0,1,5.49-10.08,21.17,21.17,0,0,1,6.09-5.28,15.29,15.29,0,0,1,7.74-2,17.47,17.47,0,0,1,7.76,2l1.54.76c.55-.59,1.11-1.18,1.64-1.78A66.62,66.62,0,0,1,69.71,12.63,81,81,0,0,1,83.71,6a102.85,102.85,0,0,1,15.1-4.26c2.68-.53,5.36-1,8.08-1.31.77-.08,1.55-.15,2.32-.24A3.23,3.23,0,0,0,109.8,0h2.67A4.55,4.55,0,0,1,114,1.56ZM85,10.25c-2.39,1-4.93,2.05-7.39,3.24a69,69,0,0,0-11.29,6.82A62.65,62.65,0,0,0,59.73,26c-1.4,1.38-2.68,2.88-4,4.35a73.1,73.1,0,0,0-5.23,6.77,79.55,79.55,0,0,0-4.63,7.45c-1,1.78-1.85,3.61-2.71,5.3l21,21a82.47,82.47,0,0,0,9.53-5.16,79.61,79.61,0,0,0,9.5-6.94c1.71-1.48,3.39-3,5-4.57,1.16-1.14,2.21-2.4,3.28-3.62a57.88,57.88,0,0,0,5.65-7.83A77.79,77.79,0,0,0,103.72,29ZM39.67,46.54c1.47-2.63,2.84-5.25,4.38-7.77s3.25-4.89,5-7.42c-1-.4-1.88-.82-2.82-1.14a10.89,10.89,0,0,0-8.6.52,16.36,16.36,0,0,0-5.47,4.63,30.13,30.13,0,0,0-5.11,10c-.23.72-.35,1.47-.55,2.36.31-.12.48-.18.63-.25a19,19,0,0,1,9.14-1.79A6,6,0,0,1,39.67,46.54ZM66.39,87.47a1.26,1.26,0,0,0,.36,0,31.17,31.17,0,0,0,9.1-3.64,20.19,20.19,0,0,0,6.79-6.28A10.88,10.88,0,0,0,84.15,69a11.67,11.67,0,0,0-1.57-3.92c-2.47,1.66-4.85,3.37-7.33,4.9s-5.13,2.91-7.76,4.38a4.87,4.87,0,0,1,.85,2.78,19,19,0,0,1-1,7.86C67,85.81,66.71,86.62,66.39,87.47Zm-40.19.36c.66-.12,1.12-.21,1.58-.28a41.87,41.87,0,0,0,7.91-2,13.44,13.44,0,0,0,6.43-4.34,14.48,14.48,0,0,0,2.45-4.27A100.2,100.2,0,0,0,37,69.4c-.82.44-1.72.87-2.57,1.38a12.85,12.85,0,0,0-5.18,5.77,40.72,40.72,0,0,0-2.74,9.54C26.41,86.6,26.33,87.1,26.21,87.82ZM90.11,8.64,105.42,24a99,99,0,0,0,3.93-19.24A95.61,95.61,0,0,0,90.11,8.64ZM59.27,72.83,41.15,54.7a65.12,65.12,0,0,0-2.79,8.61,2.75,2.75,0,0,0,.9,1.74q4.85,4.83,9.68,9.68a2.86,2.86,0,0,0,1.73.94A46.37,46.37,0,0,0,59.27,72.83Zm-40,40.11a2.11,2.11,0,0,0,3.16.62,7.56,7.56,0,0,0,1-.86q6.9-6.88,13.79-13.77a3.57,3.57,0,0,0,1.24-2.22,2.35,2.35,0,0,0-2.29-2.25,3.56,3.56,0,0,0-2.05,1.15q-7,7-13.92,13.95c-.47.47-.86,1-1.24,1.45v1.44C19.07,112.63,19.16,112.79,19.26,112.94ZM16.32,95.6q-7,7.06-14.08,14.11A16.6,16.6,0,0,0,1.16,111v1.48l.27.43a2.13,2.13,0,0,0,3.25.58,7.48,7.48,0,0,0,.92-.8L19.39,98.94a3.55,3.55,0,0,0,1.25-2.28,2.33,2.33,0,0,0-2.27-2.2A3.54,3.54,0,0,0,16.32,95.6ZM4.28,94Q11.38,87,18.46,79.87a3.42,3.42,0,0,0,1.11-2,2.33,2.33,0,0,0-2.17-2.26,3.55,3.55,0,0,0-2.26,1.21L1.3,90.65a7.69,7.69,0,0,0-1,1.2A1.94,1.94,0,0,0,.2,93.75a2.47,2.47,0,0,0,1.46,1.32H3A16.4,16.4,0,0,0,4.28,94ZM18.5,60.86c-1.83,1.89-3.71,3.73-5.57,5.59a4.88,4.88,0,0,0-.58.67A2.31,2.31,0,0,0,12.63,70a2.14,2.14,0,0,0,2.83.18,5.86,5.86,0,0,0,.66-.59l5.5-5.5a7,7,0,0,0,.53-.57,2.08,2.08,0,0,0,.08-2.75,5,5,0,0,0-.85-.73A2.74,2.74,0,0,0,18.5,60.86ZM54,92.59a2.2,2.2,0,0,0-3.71-.45l-.16.16L44.43,98a4.53,4.53,0,0,0-.71.85A2.16,2.16,0,0,0,45.4,102a2.54,2.54,0,0,0,2.16-.89c1.85-1.87,3.7-3.74,5.58-5.57A2.68,2.68,0,0,0,54,92.73ZM79.62,44.78a10.93,10.93,0,0,1-10.4-11.3c.31-7.32,6-10.81,11.24-10.94,7.28.54,11.12,5.8,11,11.34A10.91,10.91,0,0,1,79.62,44.78Zm7.29-11a6.62,6.62,0,0,0-6.56-6.67,6.63,6.63,0,1,0-.08,13.26A6.63,6.63,0,0,0,86.91,33.76ZM65.33,51.62a9.73,9.73,0,0,0,1-.75c.93-.9,1.86-1.82,2.75-2.75a3.69,3.69,0,0,0,.67-1,2.12,2.12,0,0,0-.83-2.62,2.24,2.24,0,0,0-3,.42c-.81.76-1.59,1.56-2.36,2.36-.43.45-.81,1-1.17,1.38v1.65l1.3,1.31ZM58.2,53.5A2.5,2.5,0,0,0,56.15,55v1.69l1.22,1.15H59a2.56,2.56,0,0,0,1.54-2.06A2.39,2.39,0,0,0,58.2,53.5Z"/></g></g></svg>