<svg xmlns="http://www.w3.org/2000/svg" viewBox="0 0 45.27 60.41"><title>Ресурс 21</title><g id="Слой_2" data-name="Слой 2"><g id="Слой_1-2" data-name="Слой 1"><path d="M44.7,0a1.4,1.4,0,0,1,.57.9c-.11.77-1.45,1.65-4,4.39a5.73,5.73,0,0,1,.48,4,7,7,0,0,1-4.69,5A5.15,5.15,0,0,1,32.68,14l-2.55,2.54h9a2.06,2.06,0,0,1,1.7,3.39C36.5,24.36,25.86,35.08,24,37.12c0,10.85,0,10.09,0,10.2a.84.84,0,0,1-1.3.72c-.17-.09-.15-.09-.37-.33-.12-1.24-.1.8-.1-9a3.47,3.47,0,0,1-3.06,0V54h3.06a17.92,17.92,0,0,1,.08-2.53.85.85,0,0,1,1.7.17c0,.42,0,1.71,0,2.32,1.45.21,3.56-.48,5.76,2,.52.58,1,1.24,1.44,1.86a1.58,1.58,0,0,1,.17,1.66,1.61,1.61,0,0,1-1.68.94c-19.66,0-18.34,0-18.58,0a1.7,1.7,0,0,1-1.3-1.49c0-.86.43-1.19,1.89-3,1.73-2.09,3.87-1.9,5.61-1.9V37.08c-.23-.25.58.58-6.24-6.38C-.83,18.57.36,20,0,18.6a3.26,3.26,0,0,1,.4-1.19A1.94,1.94,0,0,1,2,16.54c1.45,0,2.91,0,4.37,0a.89.89,0,1,1,0,1.77H2l-.16.19c0,.34-.38-.14,5.23,5.53l.18.15H19.65l5.87-5.87H10.84c-.8,0-.91-.5-1-.8a.93.93,0,0,1,.7-.93c.23-.06-.94,0,16.81,0l3.91-3.91c-1.39-2.07-.82-4.87.68-6.72.47-.59.75-1.05,1.58-1l.48.53v.76a5.55,5.55,0,0,0-1.74,3.53c-.13,2.86,2.82,4.08,5.49,2.33,3.4-2.23,3.15-6.88-.27-7.1-.64,0-.69-.05-1.1-.57a2.56,2.56,0,0,0-.08-.71l.51-.47A4.88,4.88,0,0,1,40,4C41,3,42.19,1.75,44,0ZM32.32,26C31.7,25.91,9.41,25.93,9,26c.16.16,3.43,3.46,3.6,3.67a10.38,10.38,0,0,0,15.4.8C31.91,26.53,31.45,26.95,32.32,26Zm7.06-7.69h-11l-5.85,5.84H34.15L34.3,24c5.72-5.85,5.1-5.14,5.22-5.45ZM29.59,58.63c-1.07-1.4-1.92-2.87-4.26-2.85-12.15.14-10.5-.83-13.58,2.85ZM17.77,34.92A17.26,17.26,0,0,0,19.83,37a1.37,1.37,0,0,0,1.82-.11c.65-.63,1.28-1.28,2-2A12.3,12.3,0,0,1,17.77,34.92Z"/></g></g></svg>