<svg xmlns="http://www.w3.org/2000/svg" viewBox="0 0 125 125"><defs><style>.cls-1{fill:#fff;}.cls-2{fill:#231f20;}</style></defs><title>Ресурс 49</title><g id="Слой_2" data-name="Слой 2"><g id="Слой_1-2" data-name="Слой 1"><rect class="cls-1" width="125" height="125"/><path class="cls-2" d="M30,1c.13.21.26.41.4.58,14.36,18.78,27.93,31,28.29,36.89l2.49,2.31V33A193.61,193.61,0,0,1,39.54,9.8H85.46A193.61,193.61,0,0,1,63.83,33v7.72l2.49-2.31c.36-5.86,13.93-18.11,28.29-36.89.13-.17.26-.37.4-.58Zm8.16,7c-1.27-1.74-2.47-3.5-3.56-5.25H90.4c-1.09,1.75-2.29,3.51-3.56,5.25ZM61.49,123a1.07,1.07,0,1,0,1.07-1.07A1.08,1.08,0,0,0,61.49,123M72.37,105h2.51v-4.79H65.27v1.67a.81.81,0,0,1-1.63,0V42.47H61.49v79.42h2.14v-4a.81.81,0,1,1,1.63,0v1.92h9.62V115H71.41l-1-1.67,1-1.67h3.48v-3.35H71.41l-1-1.67,1-1.66Z"/></g></g></svg>