<svg xmlns="http://www.w3.org/2000/svg" viewBox="0 0 40.05 40.04">
	<defs>
		<style>
			.fb{fill:#eee;}
		</style>
	</defs>

	<title>Ресурс 18</title>
	<g id="Слой_2" data-name="Слой 2">
		<g id="Слой_1-2" data-name="Слой 1">
			<path class="fb" d="M3.74,40A3.64,3.64,0,0,1,0,36.47c0-1.05,0-30,0-32.76A3.67,3.67,0,0,1,3.67,0H36.46A3.64,3.64,0,0,1,40,3.75c0,.22,0,23.8,0,32.65A3.63,3.63,0,0,1,36.28,40ZM32.59,12.45C28.81,12.45,27,12,27,15c0,.36,0,3.14,0,3.61,5.24,0,5.09,0,5.38,0-.22,1.83-.44,3.63-.68,5.43-1.59,0-3.15,0-4.71,0V36.4h9.42c.07-1.12,0-32.45,0-32.75-34.68,0-32.64,0-32.71.05,0,34.67,0,32.61.05,32.7H21.26c0-13.18,0-12.22-.05-12.29-5,0-4.62,0-4.72-.07,0-.59,0-4.3.06-5.39h4.73c0-3.23,0-3.94.06-5.11A6.34,6.34,0,0,1,25,8a7,7,0,0,1,2.56-.62,35.18,35.18,0,0,1,5,.15Z"/>
		</g>
	</g>
</svg>