<svg xmlns="http://www.w3.org/2000/svg" viewBox="0 0 53.27 60.41"><title>Ресурс 10</title><g id="Слой_2" data-name="Слой 2"><g id="Слой_1-2" data-name="Слой 1"><path d="M49.77,0s.07.1.11.11a4.34,4.34,0,0,1,3.29,5.2c-2.11,10.62-2.77,8.43-13.53,22.75-.56.74-1.81.62-3.73.74,2.2,1.66,1.78,1.82-1.16,5.48-.69.86-1.07.49-5.78.92,3.35,2.33,3.21,2.31,1.29,4.77-.59.75-6.44,8.23-7.12,8.89-2.86,2.82-6.26.89-8.7.72a.91.91,0,0,1-.21-1.81c4.66.68,6,1.53,7.83-.37,0,0,0,0,0-.1-1.07-.77-3.6-1-8.39-6.25a70.12,70.12,0,0,0-5.53,5.6c3,.52,3.29.41,3.72,1.09v.68l-.54.55c-1.56-.11-3-.53-4.6-.74-3.21,4.59-4.56,8.66-4.87,11.09a1.48,1.48,0,0,1-.59,1.08H.56A1.21,1.21,0,0,1,0,59.51,28.16,28.16,0,0,1,5.17,47.35c0-1.45.5-15.4.61-16.38.3-2.76,2.14-3.83,4.37-5.56,1.1-.86.77-.63,4,1.06.26-5.62-2.23-2.47,10.75-12.62,1.42-1.11,1.9-1.78,2.69-.56a.9.9,0,0,1-.36,1c-1.11.92-5,3.91-5.44,4.34a46.28,46.28,0,0,0-1.13,5.52l-.36.41h-.83a1.24,1.24,0,0,1-.57-.84l.57-3.32L15.9,23.16c0,2.09,0,3.23,0,3.88a1.44,1.44,0,0,1-2.09,1.29c-.76-.35-1.48-.79-2.22-1.19l-.43-.24-.83.64a23.87,23.87,0,0,0,3.45,10.61l5.35-5.36a21.92,21.92,0,0,1-.51-5.9c.29-.46.29-.46.84-.68a1,1,0,0,1,.92.76,28.6,28.6,0,0,0,.27,4.33,33.55,33.55,0,0,0,2.47-2.36C42.89,9.18,42,9.62,42.83,10c.58.25.57.6.57,1.16C42.3,12.4,21.95,32.72,21.19,33.4a10.41,10.41,0,0,0,6.48,6.95l1.95-2.48c-1.89-1.45-4-2.21-2.74-3.87.65-.85,1.77-.57,6.48-.89.67-.72,1.26-1.59,1.93-2.41a13.24,13.24,0,0,0-1.43-1.12,1.47,1.47,0,0,1,.7-2.43c.56-.11,3.18-.28,3.79-.33C49.07,13.3,50,13.14,51.39,5.09c.41-2.41-1.41-3.57-2.91-3.26-2.88.6-7.23,1.06-10.83,4.31-.28,1.3,1,3.26-1,3.72a8.64,8.64,0,0,1-2.82-.79c-4.66,3.63-3.19,2.63-4.38,3.3-.75-.2-.83-.27-1-.93a1.23,1.23,0,0,1,.61-.89c5-4,4-3.7,6.89-2.62-.13-1.26-.47-2.41.89-3.49C40.74,1.33,44.08.86,48.06.09c0,0,0-.06.06-.09ZM15,39.76a18.2,18.2,0,0,0,8.42,6l3.12-4a12.19,12.19,0,0,1-6.7-6.89ZM7.05,45l5.51-5.52A25.75,25.75,0,0,1,8.68,28.89a3.68,3.68,0,0,0-1.14,2.55C7.47,32.38,7.07,44.11,7.05,45Z"/></g></g></svg>