<svg xmlns="http://www.w3.org/2000/svg" viewBox="0 0 62.6 61"><title>Ресурс 45</title><g id="Слой_2" data-name="Слой 2"><g id="Слой_1-2" data-name="Слой 1"><path d="M62.6,48.6A10.54,10.54,0,0,1,61.83,50a3.44,3.44,0,0,1-5.48,0c-.29-.38,0,.07-5.52-9.47a12,12,0,1,1,6.08-3.48c1.75,3.22,4.23,7.07,5.69,10.19ZM58.23,28.8A10.12,10.12,0,1,0,48.05,39,10.1,10.1,0,0,0,58.23,28.8ZM52.67,40c1.69,2.93,3.36,5.83,5.05,8.73a1.64,1.64,0,1,0,2.7-1.85c-.16-.28-4.59-8-4.94-8.51Z"/><path d="M45.72,47.13c0,.65,0,1.22,0,1.79a2.16,2.16,0,0,1-2.38,2.34H34.49c.64,1.36-.52-1,4.16,8.19.34.67.2,1.23-.32,1.46A1,1,0,0,1,37,60.34c-.84-1.62-.91-1.76-4.65-9.06H22.25c-.59,1.07.53-1.08-4.55,8.84-.1.2-.19.48-.35.55a1.59,1.59,0,0,1-1,.2c-.25-.1-.45-.53-.51-.85a1.48,1.48,0,0,1,.27-.79c4.58-9,3.39-6.54,4-8-3.74,0-6,0-8.67,0a2.26,2.26,0,0,1-2.53-2.55c0-.5,0-1,0-1.59-4.47,0-4.91,0-6.26,0A2.56,2.56,0,0,1,0,44.46Q0,25.63,0,6.8A2.58,2.58,0,0,1,2.69,4.1c1.34,0,2.69,0,4,0,.71,0,1.11.36,1.1.95s-.4.88-1.08.89H3c-.92,0-1.17.25-1.17,1.15q0,18.52,0,37c0,.92.26,1.16,1.23,1.16H51.17a.91.91,0,1,1,0,1.82C49.69,47.14,48.53,47.13,45.72,47.13Zm-1.91,0h-33v2.15h33Z"/><path d="M29.39,21.89a3.62,3.62,0,0,1,3.11-.69l4.94-6.9c-2-3.55,1.92-6.26,4.38-4.29s1,6.07-2.84,5.34l-5,7a3,3,0,0,1-.35,4,2.82,2.82,0,0,1-3.27.64,3,3,0,0,1-1.87-3.46l-3.29-1.87a3.19,3.19,0,0,1-4.21,0l-3.23,1.83c-.26,2.37-1,3.44-2.52,3.7A3.07,3.07,0,0,1,12.55,22c1.13-1.09,2.46-1.13,4.27-.09L20,20.07c.24-2.58,1.33-3.83,3.23-3.74s2.89,1.43,2.91,3.72Zm11.73-9.5a1.2,1.2,0,0,0-1.22-1.19,1.21,1.21,0,0,0,0,2.42A1.2,1.2,0,0,0,41.11,12.39Zm-8.4,11.77A1.21,1.21,0,0,0,31.49,23a1.22,1.22,0,0,0-1.18,1.24,1.24,1.24,0,0,0,1.19,1.16A1.21,1.21,0,0,0,32.71,24.16Zm-16.82,0a1.2,1.2,0,1,0-2.41,0,1.2,1.2,0,0,0,2.41,0Zm8.42-4.78a1.24,1.24,0,0,0-1.23-1.19,1.25,1.25,0,0,0-1.19,1.24,1.28,1.28,0,0,0,1.2,1.17A1.25,1.25,0,0,0,24.31,19.39Z"/><path d="M22.24,4.1c0-.7,0-1.31,0-1.92a2.1,2.1,0,0,1,2-2.12C26.28,0,28.36,0,30.43.06a2.14,2.14,0,0,1,2,2.2c0,.59,0,1.17,0,1.84H51.61c2,0,3,1,3,3.05,0,8.66,0,8.22-.06,8.49a.84.84,0,0,1-1,.68c-1-.09-.84-.88-.84-2.47q0-3.33,0-6.66c0-1-.22-1.24-1.26-1.24-43.62,0-40.76,0-41,0A.85.85,0,0,1,9.68,5a.86.86,0,0,1,.74-.91C10.59,4.09,9.74,4.1,22.24,4.1Zm8.36,0c-.14-.77.21-1.52-.22-2.12H24.12V4.07Z"/><path d="M25.9,40.52c0,1-.31,1.34-1.35,1.34H21.44c-.77,0-1.13-.35-1.13-1.12q0-6.2,0-12.39a1,1,0,0,1,1.13-1.13c1.08,0,2.16,0,3.24,0,.87,0,1.22.35,1.23,1.22C25.9,30.12,25.9,40.15,25.9,40.52ZM22.19,40H24V29.12H22.19Z"/><path d="M28.74,33c0-.74.33-1.11,1.06-1.13q1.71,0,3.42,0A1,1,0,0,1,34.31,33q0,3.88,0,7.76a1,1,0,0,1-1.11,1.09q-1.68,0-3.36,0c-.77,0-1.1-.36-1.11-1.14S28.73,33.91,28.74,33Zm3.66,7V33.82H30.62V40Z"/><path d="M17.47,40.71c0,.81-.35,1.15-1.16,1.15H13.08c-.81,0-1.18-.34-1.19-1.13q0-3.85,0-7.7A1,1,0,0,1,13,31.9q1.71,0,3.42,0c.76,0,1.08.39,1.09,1.17S17.48,39.8,17.47,40.71ZM13.82,33.8V40h1.77V33.8Z"/><path d="M39,40h2.57c.73,0,1.12.32,1.13.9s-.41.93-1.17.94H38.36c-.87,0-1.19-.31-1.2-1.16s0-1.59,0-2.38a.89.89,0,0,1,.92-1C39.21,37.35,39,38.58,39,40Z"/><path d="M48.1,35.71a6.86,6.86,0,0,0,6.74-8c-.26-1.32-1.09-2.54,0-3a1,1,0,0,1,1.26.65,8.38,8.38,0,0,1-1.19,9c-5.34,6.64-15.72,2.44-15.5-5.69a8.73,8.73,0,0,1,13.79-6.82c1.22.83.15,2.33-1,1.54A6.86,6.86,0,1,0,48.1,35.71Z"/></g></g></svg>