<svg xmlns="http://www.w3.org/2000/svg" viewBox="0 0 60.99 61"><title>Ресурс 44</title><g id="Слой_2" data-name="Слой 2"><g id="Слой_1-2" data-name="Слой 1"><path d="M50.27,61a.82.82,0,0,0-.25-.1c-2.05-.1-5.18-.79-6.62-2.3a2.77,2.77,0,0,1-.74-2.06q0-15.86,0-31.73a2.69,2.69,0,0,1,.5-1.79c3.15-3.88,15.44-3.29,17.46.15.14.25.25.52.37.78V57.43a3.74,3.74,0,0,1-1.34,1.73,12.57,12.57,0,0,1-6,1.74c-.06,0-.12.06-.18.1ZM59,24.44a1,1,0,0,0-.42-.57c-4.08-2.53-12.59-1.45-13.75.38a.5.5,0,0,0,.25.6C49,27.49,57.73,26.51,59,24.44ZM44.69,43.32c0,.43,0,.76,0,1.1a.86.86,0,0,0,.45.84,9.11,9.11,0,0,0,1.21.62c4.33,1.67,11.46.76,12.62-1.07a8.69,8.69,0,0,0,0-1.46,15.33,15.33,0,0,1-5,1.3A18,18,0,0,1,44.69,43.32Zm14.24-4.05A16.59,16.59,0,0,1,51,40.64a15.39,15.39,0,0,1-6.24-1.36,3,3,0,0,0,.1,1.73,9.71,9.71,0,0,0,.91.57c4.14,2,11.91,1,13.16-.78Zm0,8.16a18.45,18.45,0,0,1-14.24,0c0,.38,0,.71,0,1a1,1,0,0,0,.46.9c3.37,2.4,12.59,1.61,13.78-.43ZM44.69,55.53c0,.37,0,.7,0,1a1,1,0,0,0,.46.9C49,59.95,57.62,59.05,58.94,57V55.55A18.43,18.43,0,0,1,44.69,55.53ZM58.94,35.2a17.19,17.19,0,0,1-9.5,1.28,21.06,21.06,0,0,1-4.75-1.25c0,.35,0,.62,0,.89-.07.73.45,1,1,1.32,4.42,2.29,12.74.89,13.27-.81ZM44.69,51.47c0,.36,0,.68,0,1a1,1,0,0,0,.57,1C49.83,56,57.75,54.8,59,52.93c0-1.56,0-1.27,0-1.43A18.4,18.4,0,0,1,44.69,51.47ZM58.95,27.05a18.19,18.19,0,0,1-14.19,0,5.33,5.33,0,0,0-.06,1,1,1,0,0,0,.5.95c4.26,2.73,13.28,1.19,13.76-.52Zm0,4.11a18.06,18.06,0,0,1-8.15,1.36c-3.79-.21-5.06-1.16-6.1-1.34,0,.77-.09,1.31.27,1.69,1.89,2,10.48,2.41,13.58.18a1,1,0,0,0,.4-.48Z"/><path d="M28.95,61c-.06,0-.13-.09-.19-.1-2.38-.06-7.42-1.15-7.43-4.1q0-10,0-20.06c0-5.64,18.33-5.56,18.33,0q0,10,0,20.06c0,3-5,4-7.43,4.1-.06,0-.13.06-.19.1Zm-5.6-24.43c.83,2,9.08,3,13.15,1,.45-.22.94-.43,1.13-.95C35.64,33.8,25.11,34,23.35,36.57Zm0,6.76a5.45,5.45,0,0,1,0,.8,1.23,1.23,0,0,0,.79,1.38c4.49,2.39,12.93,1,13.46-.74V43.35c-.16.05-.29.08-.41.13a18.41,18.41,0,0,1-12.32.4C24.4,43.72,23.92,43.54,23.36,43.33Zm0-2.61c.7,1.93,10.09,3,13.72.54a1.16,1.16,0,0,0,.49-.55V39.29a16.64,16.64,0,0,1-5.2,1.32,18.52,18.52,0,0,1-7.76-.87l-1.25-.46ZM37.61,55.55a18.48,18.48,0,0,1-14.23,0V57c1.52,2.12,9.42,2.66,13.12.84a2.29,2.29,0,0,0,1.1-.88Zm0-8.13a18.43,18.43,0,0,1-14.25,0c0,.38,0,.7,0,1a1,1,0,0,0,.58,1c4.8,2.64,13.16,1.07,13.67-.62ZM23.38,53c1.07,1.76,8.47,2.9,13.08.88a2.39,2.39,0,0,0,1.16-.91,8.48,8.48,0,0,0,0-1.42,18.42,18.42,0,0,1-14.2,0Z"/><path d="M7.51,61c-.06,0-.12-.1-.18-.1C4.73,60.79,0,59.66,0,56.88q0-6,0-12.08c0-4.53,12.58-5.43,17.05-2.21a2.87,2.87,0,0,1,1.27,2.47c0,12.62,0,11.77,0,12.08C17.9,59.9,13,60.84,11,60.9a.79.79,0,0,0-.25.1ZM2,44.76c1,1.83,8.11,2.84,12.73,1.1a3.22,3.22,0,0,0,1.48-.95l0-.41C13.57,41.87,3.12,42.32,2,44.76Zm14.3,2.65a18.44,18.44,0,0,1-14.25,0v1.49a2.77,2.77,0,0,0,1.25.9c4.55,2,13.08.74,13-1.32C16.29,48.15,16.3,47.82,16.3,47.41ZM2,55.54V57c1.37,2,10,3,13.86.41.48-.32.39-.59.39-1.88A18.42,18.42,0,0,1,2,55.54Zm0-2.57c1.59,2.18,10.05,2.69,13.63.54.75-.45.61-.71.61-2a18.46,18.46,0,0,1-14.24,0Z"/><path d="M61,11.21H59c0-.65,0-.41,0-7.55-.06-.05,0-.07-.11,0S39.29,23.23,39,23.37H17.7l-16,14L.35,35.84,16.91,21.35H38.08L57.37,2.07c-.39,0,.22,0-7.56,0,0-.66,0-1.31,0-1.94C50,0,49.16,0,61,0Z"/></g></g></svg>