<svg xmlns="http://www.w3.org/2000/svg" viewBox="0 0 40.02 40.02"><defs><style>.cls-1{fill:#fff;}</style></defs><title>Ресурс 19</title><g id="Слой_2" data-name="Слой 2"><g id="Слой_1-2" data-name="Слой 1"><path class="cls-1" d="M0,34.63Q0,20,0,5.39a.57.57,0,0,0,0-.11A5.58,5.58,0,0,1,.68,3.12,5.78,5.78,0,0,1,5.31,0a.29.29,0,0,0,.09,0H34.63s0,0,.07,0a3.77,3.77,0,0,1,.89.14A5.82,5.82,0,0,1,40,5.37s0,0,0,.07V34.59a.46.46,0,0,0,0,.11A5.8,5.8,0,0,1,34.08,40C3.68,40,5.72,40,5.27,40A5.83,5.83,0,0,1,0,34.72.31.31,0,0,0,0,34.63ZM30.31,16.89a12.4,12.4,0,0,1,.45,2.57A10.79,10.79,0,0,1,24,30c-7.41,2.9-14.68-2.86-14.74-9.51a8.88,8.88,0,0,1,0-1.43c0-.18,0-.38.06-.56A11.11,11.11,0,0,1,9.69,17a.51.51,0,0,0,0-.12H3c0,.24,0,.47,0,.7,0,.55,0,.85,0,1.3s0,.42,0,1.32c0,.22,0,.45,0,.67s0,.41,0,.61c.05.62-.05.86,0,1.32s0,1,0,1.28c.06.63-.05.87,0,1.32s0,.43,0,1.32c0,.22,0,.45,0,.67s0,.41,0,.61a4.44,4.44,0,0,1,0,.74C3,29,3,29.53,3,30c0,.2,0,.41,0,.61,0,.54,0,.57,0,1.32,0,.16,0,.32,0,.49s0,.5,0,.75,0,.35,0,.53a3.11,3.11,0,0,0,.31,1.8A2.71,2.71,0,0,0,5.78,37c30.56,0,28.57,0,29,0A2.82,2.82,0,0,0,37,34.18q0-8.54,0-17.07v-.22Zm6.72-3c0-9,0-8.35-.1-8.81a2.86,2.86,0,0,0-1.87-1.95C34.57,2.94,36.48,3,5.86,3a2.23,2.23,0,0,0-.73.08A2.85,2.85,0,0,0,3,5.8C3,8.43,3,11,3,13.87h8.2a10.74,10.74,0,0,1,17.64,0ZM20,12.24a7.77,7.77,0,1,0,.46,15.52,7.49,7.49,0,0,0,5.09-2.31A7.77,7.77,0,0,0,20,12.24Z"/><path class="cls-1" d="M31.63,8.4h2.18a1.5,1.5,0,0,1,1,2.67,1.38,1.38,0,0,1-.89.33c-1.27,0-2.54,0-3.8,0a1.46,1.46,0,0,1-1.42-1.14,1.74,1.74,0,0,1,0-.43c0-1.22,0-2.45,0-3.67a1.5,1.5,0,1,1,3,.09C31.63,7.52,31.61,8.16,31.63,8.4Z"/></g></g></svg>