<svg xmlns="http://www.w3.org/2000/svg" viewBox="0 0 60.43 60.41"><title>Ресурс 11</title><g id="Слой_2" data-name="Слой 2"><g id="Слой_1-2" data-name="Слой 1"><path d="M60.43,38.24c-.23.2-.15.5-.21.75a7,7,0,0,1-5.14,5.12c-.84.24-1.06.31-11.47.24-5.61,0-8.33-5.34-7-8.22.07-.16,9.59-20.84,9.61-21a10.64,10.64,0,0,0-4.15-1c-6.49,0-8.14,0-8.81,0V50.87l3.53,3.52c3.54,0,4.08-.06,5,.23A5,5,0,0,1,45.3,59.8l-.62.61H15.74l-.63-.62a5.08,5.08,0,0,1,4.19-5.35,31.79,31.79,0,0,1,4.29,0l3.55-3.54V14.19a3.13,3.13,0,0,0-.39,0c-6.46,0-11-.3-12.6,1C14.83,16.66,24,36.59,24,36.62c.91,1.9-1.2,7.21-6.1,7.64-1.19.11-11,.29-12.52-.14A7,7,0,0,1,.21,39c-.07-.25,0-.55-.21-.75v-1.3c.14-.06,9.81-21.36,10-21.74L7.6,14l.91-1.82,2.36,1.17c.26-.6.45-1.2,1.08-1.25.85,0,1.08.61,1.36,1.16a14.26,14.26,0,0,1,5.89-1.19c3.74,0,6.84,0,8,0,0-.67,0-1.31-.06-2h-1.9a6.18,6.18,0,0,1,0-2h1.64c-.65-2.55-1.11-3.77-.58-5.23A4.5,4.5,0,0,1,29.5,0h1.42s.07.1.12.1a3.8,3.8,0,0,1,2.21,1.22c1.86,2,1,4.06.3,6.68.6.08,1.16,0,1.71.08v2h-2v2c10.53,0,9.76-.19,13.82,1.19.54-1,.54-1,1.17-1.17.85,0,1,.73,1.31,1.26l2.33-1.16.9,1.82-2.35,1.19c.1.32,7.37,16.32,10,21.75Zm-2.61-2L48.58,16.07l-.54.12-9.18,20Zm-46-20.13L2.61,36.21H21.56L12.35,16.12ZM2.15,38.28a5,5,0,0,0,4.74,4c11.67,0,10.85,0,11,0,3-.66,4.11-3.14,4-4Zm56.13,0H38.47a4.82,4.82,0,0,0,4.65,4q5.22,0,10.44,0A5,5,0,0,0,58.28,38.28ZM31.15,50.36V14.14c-.64,0-1.26,0-1.9.05,0,38.37-.07,36,.1,36.17Zm11.92,8a2.87,2.87,0,0,0-2.84-2h-20a2.87,2.87,0,0,0-2.85,2ZM29,8a9.81,9.81,0,0,0,2.47,0c.91-3.69.87-3.47.87-3.47.35-3.24-4.8-3-4.21,0C28.34,5.65,28.69,6.8,29,8ZM26.73,54.36h7l-1.94-2H28.67Zm2.55-44.3V12h1.9a18.73,18.73,0,0,0,0-1.95Z"/></g></g></svg>