<svg xmlns="http://www.w3.org/2000/svg" viewBox="0 0 175 115.94"><defs><style>.cls-1{fill:#fff;}</style></defs><title>Ресурс 3</title><g id="Слой_2" data-name="Слой 2"><g id="Слой_1-2" data-name="Слой 1"><path class="cls-1" d="M68.67,0c.12.2.25.38.37.55C82.58,18.24,95.36,29.78,95.69,35.3L98,37.48V30.2A182.39,182.39,0,0,1,77.67,8.32h43.25A182.39,182.39,0,0,1,100.54,30.2v7.28l2.34-2.18C103.22,29.78,116,18.24,129.54.55c.12-.16.25-.35.37-.55Zm7.68,6.57C75.16,4.93,74,3.28,73,1.63h52.57c-1,1.65-2.15,3.3-3.35,4.94Zm22,108.36a1,1,0,1,0,1-1,1,1,0,0,0-1,1M108.59,98H111V93.53H101.9V95.1a.77.77,0,0,1-1.53,0v-56h-2v74.82h2v-3.75a.77.77,0,1,1,1.53,0V112H111v-4.51h-3.27l-.91-1.57.91-1.57H111v-3.15h-3.27l-.91-1.57.91-1.57ZM13.72,65.92a18,18,0,0,1,5.47.8,12.45,12.45,0,0,1,4.35,2.37,10.82,10.82,0,0,1,2.87,3.85,13.91,13.91,0,0,1,0,10.48,10.59,10.59,0,0,1-2.87,3.83,12.06,12.06,0,0,1-4.35,2.3,19,19,0,0,1-5.47.75,18.94,18.94,0,0,1-5.47-.75,12.06,12.06,0,0,1-4.35-2.3A10.6,10.6,0,0,1,1,83.42,13.91,13.91,0,0,1,1,72.94,10.83,10.83,0,0,1,3.9,69.09a12.44,12.44,0,0,1,4.35-2.37A18,18,0,0,1,13.72,65.92Zm0,3.1q-4.65,0-7.18,2.43A8.87,8.87,0,0,0,4,78.16a8.87,8.87,0,0,0,2.53,6.71q2.53,2.43,7.18,2.43t7.18-2.43a8.87,8.87,0,0,0,2.53-6.71,8.87,8.87,0,0,0-2.53-6.71Q18.37,69,13.72,69Zm17.23,2.92a1.75,1.75,0,0,0-.21-1,1.23,1.23,0,0,0-.93-.25v-.55H42q6.84,0,6.84,5.61A5,5,0,0,1,48.31,78a5.91,5.91,0,0,1-1.44,1.8A6.48,6.48,0,0,1,44.83,81a7.28,7.28,0,0,1-2.44.41H33.77v6.93a1.75,1.75,0,0,0,.21,1q.21.25.93.25v.55h-5.1v-.55q.73,0,.93-.25a1.75,1.75,0,0,0,.21-1Zm11.21,6.93A3.9,3.9,0,0,0,45,78a3.16,3.16,0,0,0,.89-2.37,2.72,2.72,0,0,0-1.07-2.39,5.71,5.71,0,0,0-3.26-.75H33.77v6.38Zm9.39-6.93a1.75,1.75,0,0,0-.21-1,1.08,1.08,0,0,0-.84-.25v-.55H68.87A.92.92,0,0,0,70,69h.55v4.74H70a.92.92,0,0,0-1.14-1.09H54.56v5.93H64.63a.92.92,0,0,0,1.14-1.09h.55v4.74h-.55a.92.92,0,0,0-1.14-1.09H54.56v6.47H69.37a.92.92,0,0,0,1.14-1.09h.55v4.6h-.55a1,1,0,0,0-.23-.77,1.57,1.57,0,0,0-.91-.18H50.5v-.55a1.07,1.07,0,0,0,.84-.25,1.75,1.75,0,0,0,.21-1ZM73.61,89.62a1.41,1.41,0,0,0,1-.25,1.5,1.5,0,0,0,.25-1V71.94a1.5,1.5,0,0,0-.25-1,1.41,1.41,0,0,0-1-.25v-.55h6.65v.55a2.77,2.77,0,0,0-1,.11c-.17.08-.25.18-.25.3a2.47,2.47,0,0,0,.5.77L91.89,86V71.94a1.5,1.5,0,0,0-.25-1,1.41,1.41,0,0,0-1-.25v-.55h5v.55a1.41,1.41,0,0,0-1,.25,1.5,1.5,0,0,0-.25,1V88.34a1.49,1.49,0,0,0,.25,1,1.4,1.4,0,0,0,1,.25v.55H89.56v-.55a3.58,3.58,0,0,0,1.09-.09.33.33,0,0,0,.18-.32.53.53,0,0,0-.16-.39c-.11-.11-.24-.25-.39-.43L77.39,73.67V88.34a1.49,1.49,0,0,0,.25,1,1.4,1.4,0,0,0,1,.25v.55h-5Zm30.75-42.35a1.28,1.28,0,0,0-.23-.8,1,1,0,0,0-.87-.3v-.55h15.68a12.53,12.53,0,0,1,3.71.48,6.76,6.76,0,0,1,2.48,1.32,5,5,0,0,1,1.39,2,6.68,6.68,0,0,1,.43,2.44,6,6,0,0,1-.75,3.08,4.09,4.09,0,0,1-2.67,1.8v.09a4.76,4.76,0,0,1,3,2,6.71,6.71,0,0,1,1,3.81,6.46,6.46,0,0,1-2.1,5.15q-2.1,1.82-6.88,1.82H103.26v-.55a1,1,0,0,0,.87-.3,1.27,1.27,0,0,0,.23-.8Zm14.27,7.93a6.13,6.13,0,0,0,3.6-.77,3.3,3.3,0,0,0,0-4.74,6.13,6.13,0,0,0-3.6-.77H108.18v6.29Zm1,11.12a4.8,4.8,0,0,0,3.31-1,4.37,4.37,0,0,0,0-5.83,4.81,4.81,0,0,0-3.31-1H108.18v7.84Zm9.71,2.73a1.2,1.2,0,0,0,1-.32,4,4,0,0,0,.48-.82l7.2-16.5a2.43,2.43,0,0,0,.23-.77.51.51,0,0,0-.25-.41,1.82,1.82,0,0,0-.89-.23v-.46h7.38v.55a2.24,2.24,0,0,0-.71.11.43.43,0,0,0-.34.43,1,1,0,0,0,.11.46q.11.23.21.46l7.79,16.59a2.18,2.18,0,0,0,.41.62,1.33,1.33,0,0,0,1,.3v.55H147.2v-.55a2.84,2.84,0,0,0,1.09-.14.44.44,0,0,0,.27-.41,1.47,1.47,0,0,0-.09-.55l-.18-.46-1.87-3.83H135.35l-1.55,3.46q-.18.41-.39.77a1.31,1.31,0,0,0-.2.59.44.44,0,0,0,.27.41,2.34,2.34,0,0,0,1,.14v.55h-5.1Zm7.06-7.93h8.89l-4.6-9.57Zm22.24,6.65a1.75,1.75,0,0,0,.21,1c.14.17.45.25.93.25v.55h-5.1v-.55q.73,0,.93-.25a1.75,1.75,0,0,0,.21-1V51.38a1.75,1.75,0,0,0-.21-1c-.14-.17-.45-.25-.93-.25v-.55h13.95a5.65,5.65,0,0,1,4.38,1.5,5.87,5.87,0,0,1,1.37,4.1,5.2,5.2,0,0,1-1.44,4,6.07,6.07,0,0,1-4.08,1.44l5,7.66a2.38,2.38,0,0,0,.55.66,1,1,0,0,0,.59.16v.55h-4.92v-.55a1.59,1.59,0,0,0,.62-.07c.07,0,.11-.14.11-.3a.88.88,0,0,0-.14-.46l-.36-.64-4.47-7h-7.2ZM168.35,58a3.09,3.09,0,0,0,2.32-.73,3.17,3.17,0,0,0,.68-2.23,3.41,3.41,0,0,0-.71-2.39,3.79,3.79,0,0,0-2.76-.75h-9.25V58Z"/></g></g></svg>