<svg xmlns="http://www.w3.org/2000/svg" viewBox="0 0 113.57 155.73"><title>Ресурс 29</title><g id="Слой_2" data-name="Слой 2"><g id="Слой_1-2" data-name="Слой 1"><path d="M58.73,0c.11.09.21.24.32.25a10.7,10.7,0,0,1,5.46,2.4c8.5,6.65,9.82,9.09,13.71,9.27,2.33.11,10.58,1,12.88,1.46a12.13,12.13,0,0,1,9.33,10.12c1.61,14,1.11,14.11,3,16.43,7,8.65,8.58,9.89,9.42,12.54a12.87,12.87,0,0,1-2.65,13c-2.29,2.69-4.47,5.48-6.74,8.19-2.59,3.09-1.57,6.43-3,16.58A12.17,12.17,0,0,1,90.2,100.38c-2.56.35-2.69.25-7.78.92,3.19,8,14.56,34.8,16.38,39.11,1.3,3.1-1,5-2.78,4.66-3.44-.58-12.54-3.68-15.23-4-2.87,5.17-6.91,12.55-6.91,12.55-1.67,3-4.69,2.7-5.89-.06-.18-.41-8.62-20.28-8.69-21.2a2.25,2.25,0,0,1,4.25-1.29c.74,1.44,6.39,15.56,7.54,17.76,1.1-1.5,4.78-8.39,5.61-10s3.43-2.9,5.27-2.32c2.13.68,3.55,1,11.45,3.16l-15.8-37.76c-2.42-.15-3.56,1.25-8.69,5.43l-6,4.83c-6.44,15.25-8.06,19.27-17.12,41a3.93,3.93,0,0,1-1.7,2.25,2.9,2.9,0,0,1-4-1.1c-1.72-2.77-5.85-10.89-7.45-13.26-15.54,4-17,6.1-18.44.94,5.5-13.41,11.25-26.91,16.92-40.57-1.68-.37-.3-.28-6.34-.72a12.55,12.55,0,0,1-11.48-9.56,29.36,29.36,0,0,1-.55-3.41C11.31,73.33,14,78.14,3.08,65-1,60.08-1.17,53.55,3.35,48.24c7.11-8.35,8.47-9.72,8.61-13,.08-1.91.37-3.81.56-5.71C13,25,12.59,18.72,19,14.86c3.26-2,4.6-1.67,12-2.42,5.7-.58,6.93-.43,9.9-2.94,8.26-7,10-8.69,13.61-9.23.11,0,.2-.17.3-.26Zm50.22,56.8c.18-3.58-1.23-4.35-9.14-14-2.64-3.23-2.43-4.91-3.37-13.52-.2-1.85-.29-3.72-.64-5.54a7.69,7.69,0,0,0-6.45-6c-9.55-1.47-13.74-.3-17.62-3.25-3.37-2.57-8.45-6.91-10.4-8.33a7.67,7.67,0,0,0-9.63.44C39.23,16.92,40.93,16,33,16.77c-2.7.28-5.4.6-8.11.84a7.82,7.82,0,0,0-7.2,6.63c-.29,1.68-1.17,11.38-1.22,12-.39,5.14-3.27,7-10.1,15.63C2,57.5,6.83,62.23,8.26,64c8.51,10.54,7.67,8.32,8.55,16.72.28,2.65.61,5.3.84,8A7.9,7.9,0,0,0,21,94.55c2.26,1.71,4.77,1.45,9.8,1.92,5.71.53,8.83.69,11.9,3.17s6,4.84,8.88,7.33a8.15,8.15,0,0,0,10.42.1c2.68-2.31,5.49-4.46,8.18-6.75,4.42-3.74,6.79-3,17.4-4.24a16.13,16.13,0,0,0,2.54-.34c6.22-1.75,5.89-7.3,6.11-9.29,1.59-14.79,0-11.21,11-24.65A7.28,7.28,0,0,0,108.94,56.8Zm-72.89,45C30.8,114.42,25.55,126.9,20.3,139.51a3,3,0,0,0,.61,0c11.18-3.19,11.39-3.38,12.5-3.16,4,.81,3.74,4,9.17,12.59L57.3,113.76c-2.55-.49-5.08-.24-8.61-3.19C39.27,102.72,38.55,101.85,36.05,101.85Z"/><path d="M51.68,25.55c-.41-.34-1.95-1.29-1.35-3A2.16,2.16,0,0,1,52.2,21a38,38,0,0,1,14.94,1.21A36.05,36.05,0,1,1,35.55,85.89c-21.64-16-19.42-49.34,6.06-61.83,1.89-.93,3.41.08,3.68,1.55.37,2-1.59,2.58-2.44,3a31.44,31.44,0,1,0,43.56,38.8C93.7,47.55,78.91,27.73,62,25.83,53.33,24.85,57,25.55,51.68,25.55Z"/><path d="M48.86,59.24c2.12-2,16-15.94,16.75-16.69,3.87-3.88,9.06-2.85,11.47,1.12a7.22,7.22,0,0,1-1.16,8.6c-1.07,1-17.43,17.39-21.48,21.5-3.27,3.31-7.58,3.3-10.6.28-3.3-3.29-6.6-6.58-9.88-9.89a6.85,6.85,0,0,1-1.53-7.82,7,7,0,0,1,11.45-2.25C44.87,55,47,57.11,48.86,59.24Zm-12.29.81c.27.32.52.64.8.93,11.18,11.21,11.06,12.17,13.9,9.33,24.2-24.2,20.53-20.5,22-22.15.06-1,.39-2.44-1.42-3.25-1.58-.71-2.63.62-3.37,1.35C48.09,66.69,52,62.79,49.86,64.67a2.88,2.88,0,0,1-2.95-.94c-2.22-2.29-4.47-4.55-6.56-6.68l-1.5-.45C36.66,57.36,36.44,57.69,36.57,60.06Z"/></g></g></svg>