<svg xmlns="http://www.w3.org/2000/svg" viewBox="0 0 43.88 46.01"><title>Ресурс 37</title><g id="Слой_2" data-name="Слой 2"><g id="Слой_1-2" data-name="Слой 1"><path d="M30.92,0a4,4,0,0,1,3,2.52c.36.92.28-1.35.26,39.36a3.89,3.89,0,0,1-4,4.13H13.65a3.9,3.9,0,0,1-4-4.14q0-18.87,0-37.74A3.88,3.88,0,0,1,12.81.08.51.51,0,0,0,13,0ZM32.6,38.34c.07-.48.06-29.53,0-29.88H11.27c-.07.55-.05,29.53,0,29.88Zm0-31.45c0-1.14,0-2.23,0-3.32a2.29,2.29,0,0,0-2.49-2H13.74a2.3,2.3,0,0,0-2.51,2.31c0,.68,0,2.72,0,3.05Zm0,33H11.24c0,.87,0,1.72,0,2.57a2.3,2.3,0,0,0,2.49,2H30c2,0,2.65-1.32,2.64-2.22C32.64,42.24,32.64,39.94,32.64,39.92Z"/><path d="M3.88,17.4a7.9,7.9,0,0,0-.06,11.14L2.76,29.62C1.7,28.94.29,26.14.08,24.33a9.62,9.62,0,0,1,2.65-8C2.93,16.44,2.88,16.44,3.88,17.4Z"/><path d="M41.12,29.65l-1.07-1.06a8.21,8.21,0,0,0,2.13-4.22A7.06,7.06,0,0,0,42.34,23,8,8,0,0,0,40,17.44l1.06-1.06A9.35,9.35,0,0,1,41.12,29.65Z"/><path d="M6.11,26.3,5,27.41a1.13,1.13,0,0,1-.33-.19,6,6,0,0,1,.42-8.61l1.07,1.07A4.81,4.81,0,0,0,6.11,26.3Z"/><path d="M37.73,26.28a4.7,4.7,0,0,0,0-6.56l1.13-1a6.09,6.09,0,0,1,0,8.63Z"/><path d="M26.51,17.64V23.8h-3v4.59h3v6.11c-.55,0-2.36,0-5.29,0a3.81,3.81,0,0,1-3.86-3.7q0-4.72,0-9.43a3.85,3.85,0,0,1,3.87-3.75C21.45,17.62,26.18,17.6,26.51,17.64ZM21.94,33c0-14.83.06-13.67-.1-13.82-1,.1-2,0-2.63,1.17-.44.74-.33.43-.33,10.25A2.43,2.43,0,0,0,21.94,33Zm1.55-3a21.56,21.56,0,0,0,0,3c.48,0,1,0,1.45,0a22,22,0,0,0,0-3ZM25,22.19a16.48,16.48,0,0,0-.05-3c-1.22,0-1.26,0-1.44.08a19.26,19.26,0,0,0,0,3Z"/><path d="M31.15,14.54H29.6V10h1.53C31.19,10.34,31.21,13.69,31.15,14.54Z"/><path d="M15.81,10v1.48H12.71V10A19.56,19.56,0,0,1,15.81,10Z"/><path d="M26.55,11.52H28v3h-1.5Z"/><path d="M17.35,10h3v1.49h-3A12.89,12.89,0,0,1,17.35,10Z"/><path d="M23.48,14.54V13.07A6.43,6.43,0,0,1,25,13v1.51Z"/><path d="M16.56,5.36V3.91c.34-.08,9.84-.11,10.76,0,0,.48,0,1,0,1.45C27,5.4,17.48,5.43,16.56,5.36Z"/><path d="M20.41,41.44h3v1.49h-3C20.39,42.45,20.41,42,20.41,41.44Z"/></g></g></svg>