<svg xmlns="http://www.w3.org/2000/svg" viewBox="0 0 60.58 60.59"><title>Ресурс 23</title><g id="Слой_2" data-name="Слой 2"><g id="Слой_1-2" data-name="Слой 1"><path d="M31.49,0c.25.23.58.14.87.22a8.75,8.75,0,0,1,6.13,5.36c.84,2,.51,2.81.6,7.17a3.88,3.88,0,0,1-2.76,3.69l-.46.16A6.38,6.38,0,0,1,34.23,19v.81l4.55,1.71a4.81,4.81,0,0,1,3,3.15,3.77,3.77,0,0,1,.2,1.09c0,.48,0,5,0,5.45H18.61c0-.39,0,.46,0-5.21a4.85,4.85,0,0,1,3.35-4.5c.83-.3,4-1.49,4.44-1.69V19a5.8,5.8,0,0,1-1.6-2.38,4.17,4.17,0,0,1-3.18-3c-.12-.43,0-5.27,0-5.85A8.88,8.88,0,0,1,28.47.15c.22-.05.47.06.65-.15Zm5.63,9.24A6.83,6.83,0,0,0,25.63,3.82c-1.86,1.72-2.41,4.46-2.06,5.43a5.24,5.24,0,0,1,2.26-.51c2.2,0,3.31-1.23,4.5-2.29A6.23,6.23,0,0,0,35,8.77,6.7,6.7,0,0,1,37.11,9.24Zm-.36,13.64c-.71,2-1.29,3.93-2,5.85L30.31,26.5l-4.48,2.24-2-5.85c-1,.39-3.27.82-3.28,3.19,0,3.39,0,2.91,0,3.21H40a29.26,29.26,0,0,0,0-3.16C40,23.76,38,23.37,36.76,22.88ZM30.27,9.17a7.71,7.71,0,0,1-3.87,1.52c0,1.3,0,2.56,0,3.82a3.9,3.9,0,1,0,7.8.14c0-.36,0-3.33,0-4C33,10.57,32.27,10.31,30.27,9.17Zm4.61,13-1.2-.46c-.08.12-1.8,2.88-1.94,3.3.65.28,1.22.66,1.91.9Zm-9.12,0c.38,1.25.79,2.47,1.24,3.74l1.92-1-2-3.25A5.09,5.09,0,0,0,25.76,22.21Zm2.59-2,1.95,3.24a18.07,18.07,0,0,0,1.86-3.21A6.44,6.44,0,0,1,28.34,20.21Zm7.89-5.91a1.81,1.81,0,0,0,0-3.12ZM24.38,11.11a1.86,1.86,0,0,0,0,3.17Z"/><path d="M60.58,50.63c-.76.18-1.51.36-2.27.55-.2.05-.45,0-.59.28l1.4,2.39-5.26,5.26-2.45-1.43c-.23.45,0-.21-.81,2.87H43.21l-.74-2.83a11.72,11.72,0,0,0-2.5,1.4l-5.28-5.28,1.44-2.44c-.93-.42-1.93-.49-2.86-.83V43.19l2.84-.74a16.77,16.77,0,0,0-1.41-2.51L40,34.66l2.45,1.45a11.56,11.56,0,0,0,.69-2.54,2,2,0,0,1,.15-.33H50.6l.76,2.89,2.51-1.47,5.25,5.26L57.7,42.38c.37.21.44.19,2.88.8ZM37.14,40.19l1.18,2-.8,1.92-2.35.62c0,1.45,0,2.86,0,4.28l2.34.63.79,1.92-1.16,2,3.09,3.09,2-1.16,1.92.79.61,2.28h4.33l.58-2.26,1.93-.82,2,1.16,3.09-3.09-1.17-2,.82-1.92,2.26-.59V44.72l-2.29-.61-.79-1.92,1.2-2-3.07-3-2,1.19-1.93-.79-.61-2.28a34.66,34.66,0,0,0-4.28,0c-.31.77-.35,1.62-.67,2.34l-1.87.77c-.72-.38-1.38-.84-2-1.16Z"/><path d="M19.53,35.17V60.49c-.51.09-17.76.13-19.44,0C0,60.08,0,36.57.05,35.2.52,35.12,18.12,35.08,19.53,35.17ZM2,58.54c.26,0,15.06.07,15.56,0V37.17H2Z"/><path d="M19.88,13.7c-.21.32-3.94,4.08-4.45,4.48L14,16.74l2.12-2.08c-2.77,0-3.21,0-4.16,0a1.09,1.09,0,0,0-1.18,1.19c0,5.54,0,10.81,0,17.35h-2c0-6.3,0-11.75,0-17.42a3.07,3.07,0,0,1,3.14-3.11H16c.12-.13.27.12-2-2.11l1.33-1.38Z"/><path d="M43.37,27.07l1.35-1.36,2.13,2.13V15.33a1,1,0,0,0-1.12-.67c-1.33,0-2.38,0-4.63,0v-2h4.68a3.13,3.13,0,0,1,2,.65c1.35,1,1.14,2.32,1.14,3.81,0,3.46,0,6.52,0,10.75L51,25.74l1.35,1.32-4.5,4.5Z"/><path d="M24.75,42.36l1.32,1.34L23.88,45.9h7.36v2c-.28.06.26,0-7.29,0L26.09,50c-.13.29-.16.22-1.25,1.42a58.55,58.55,0,0,1-4.65-4.54Z"/><path d="M46.94,39a7.83,7.83,0,1,1-5.5,13.42A7.79,7.79,0,0,1,46.94,39Zm-5.87,7.87A5.85,5.85,0,1,0,46.91,41,5.82,5.82,0,0,0,41.06,46.91Z"/><path d="M15.63,39.07V41H4V39.07Z"/><path d="M3.94,48.82V46.88H15.61a17,17,0,0,1,0,1.94Z"/><path d="M15.62,50.78v1.94H4a9.24,9.24,0,0,1,0-1.89C4.45,50.73,13.85,50.69,15.62,50.78Z"/><path d="M7.85,44.91V43h7.76a17.52,17.52,0,0,1,0,1.94Z"/><path d="M4,54.68h7.77c0,.65,0,1.29,0,2H4Z"/><path d="M5.87,42.95c.09.7,0,1.32.06,2H4a8.18,8.18,0,0,1,0-1.93C4.57,42.91,5.19,43,5.87,42.95Z"/><path d="M15.63,54.66v2H13.68v-1.9C13.94,54.63,14,54.66,15.63,54.66Z"/><path d="M43,46.85A3.93,3.93,0,0,1,46.88,43a3.82,3.82,0,0,1,3.94,3.89C50.78,52,43.18,52.19,43,46.85Zm2,0a1.94,1.94,0,0,0,3.88,0,1.89,1.89,0,0,0-2-1.93A1.94,1.94,0,0,0,45,46.89Z"/></g></g></svg>