<svg xmlns="http://www.w3.org/2000/svg" viewBox="0 0 58.8 52.86"><title>Ресурс 46</title><g id="Слой_2" data-name="Слой 2"><g id="Слой_1-2" data-name="Слой 1"><path d="M0,38.84l.51-.57,1.42-.14c.21-4.08-.65-6.54,1.7-9.3a.31.31,0,0,0,0-.1,3.93,3.93,0,0,1,3.58-6.93,9.52,9.52,0,0,1,1.57-.26,9.54,9.54,0,0,1,1.57.26C14.3,20.18,17.9,25.58,14,28.7a8,8,0,0,1,1.61,3.46c.15.81.12,1.6.12,6,1.29,0,1.62-.07,2,1.08l-.42,2s0,0,0,0,20.64-3.59,23-4c-4.2,0-5.29.21-6.84-.92a4.7,4.7,0,0,1-2-3.1,4.94,4.94,0,0,1-.1-.79c0-1.44,1.35-1,2.92-1.1.06-.91.05-4,0-4.88A6.87,6.87,0,0,1,36,21.88a4,4,0,0,1-1.62-4.21,3.74,3.74,0,0,1,3-2.91,3.83,3.83,0,0,1,2.28.19,7.48,7.48,0,0,1,3.92,0l.69-.18A3.92,3.92,0,0,1,48.42,14a11.92,11.92,0,0,1,1.46-.25c.95,0,1.24.34,2,.14A3.9,3.9,0,0,1,56,20c-.26.32-.58.6-.9.93a7,7,0,0,1,1.73,4.45c0,1.4,0,2.5,0,5,.32,0,.6,0,.88,0a1.09,1.09,0,0,1,1.08,1.09,5.38,5.38,0,0,1-1,2.79c.39.17.94.33.95,1,0,1.32,0,2.64,0,4a.88.88,0,0,1-.68.89c-1,.31-26.73,4.52-26.9,4.74,5.11,7.23,5.86,6.74,4.41,8H23.46a.91.91,0,0,1-.8-1.38c.2-.37,0-.13,4.41-5.93-.35-.11-12.21,2.14-24.92,4.21a5.87,5.87,0,0,0-.84.15c-.7.22-1-.24-1.31-.62V44.69A1.58,1.58,0,0,1,1.16,44c.6-.08,1.19-.18,1.84-.29A5.14,5.14,0,0,1,.17,40.44L0,39.87Q0,39.35,0,38.84Zm2,9,54.84-9.46a7.1,7.1,0,0,0-.05-1.92L2,45.88C2,47.94,1.94,47.53,2,47.81ZM51,25.39a.86.86,0,0,1-.1-.14c0-.07,0-.15-.06-.22a1,1,0,0,0-1.8.09A1,1,0,0,0,50,26.43a3,3,0,0,1,2.94,3.13,4.79,4.79,0,0,1-.16.79,8.17,8.17,0,0,0,2.13-.06c0-4.67,0-4.93-.11-5.69a4.85,4.85,0,0,0-7.36-3.31,4.56,4.56,0,0,0-2.3,4c0,.53,0,4.57,0,5.09a15.74,15.74,0,0,0,2,0l-.1-.89H49c.23.68.51.93,1,.91s.8-.31,1-1c-.24-.76-.44-.89-1.21-1a2.85,2.85,0,0,1-2.7-3,3.08,3.08,0,0,1,2-2.78V21.51c1.64,0,1.67,0,1.93.1v1.07a3,3,0,0,1,2,2.7ZM11.61,38.14h2c.06-.3,0-5.54,0-5.76a4.91,4.91,0,0,0-8.86-1.86C3.7,32.06,3.91,33,3.91,38.11a6.82,6.82,0,0,0,2.08,0l-.11-.83H7.79c.24.74.53,1,1.43.87a1.07,1.07,0,0,0,.5-1.32l-.44-.46a3.83,3.83,0,0,0-.63-.12,2.91,2.91,0,0,1-2-4.92,9.82,9.82,0,0,1,1.15-.87v-1a10.14,10.14,0,0,1,2,0v1.07c1.41.7,2.12,1.79,1.85,2.77H9.83C9.46,31.91,8.18,32.1,7.89,33c-.16.5,0,.78.62,1.19A3,3,0,0,1,11.61,38.14ZM53.32,19.45a1,1,0,0,0,.59-.17,1.93,1.93,0,0,0-1.43-3.55c-.36.1-.72.23-1.06.35-1.59-.62-1.4-.56-2.9,0l-.78-.32a1.94,1.94,0,1,0-1.15,3.7A6.94,6.94,0,0,1,53.32,19.45Zm-44.48,4a4.36,4.36,0,0,0-.81.25c-1.2.67-1.28-.53-2.72-.12a2,2,0,0,0,.11,3.77,6.86,6.86,0,0,1,6.82,0,1.93,1.93,0,0,0,1.43-2.14,1.82,1.82,0,0,0-.45-1,2.25,2.25,0,0,0-1.52-.72C10,24,10.56,24,8.84,23.44ZM2.21,40.15c0,.07,0,.11,0,.14.76,1.82,2.43,1.84,3.52,1.85,2.94,0,7.61.15,8.52-.45a3,3,0,0,0,1.27-1.54Zm54.42-7.82H43.31A3,3,0,0,0,46,34.26c2.62,0,5.23,0,7.85,0A2.82,2.82,0,0,0,56.63,32.33ZM44.29,21.58c-.31.07-.5.11-.67.16a4.92,4.92,0,0,0-3.44,4.64c0,5.57,0,4.2,0,5h.86a.66.66,0,0,0,.09-.12c.33-.95.6-.86,1.91-.87C43.08,25.62,42.82,24.05,44.29,21.58ZM29.4,45.7l-3.88,5.18h7.77Zm8.83-14.36c0-5.91-.09-5.81.37-7.14a7.13,7.13,0,0,1,1.52-2.5,4.79,4.79,0,0,0-3.85,4.6c0,3,0,4.45,0,5Zm4.9,3.91a6.05,6.05,0,0,1-1.57-1.91h-8a.72.72,0,0,0,0,.18,2.93,2.93,0,0,0,2.73,1.74C37.36,35.27,42.44,35.29,43.13,35.25ZM40.5,19.57a7.88,7.88,0,0,1,2.63.31l.52-.17A4.78,4.78,0,0,1,43.16,17,1.89,1.89,0,0,0,40.5,19.57Zm-1.8-2.82a1.87,1.87,0,0,0-2.37,1.33,1.93,1.93,0,0,0,1.44,2.39l.74-.39A3.86,3.86,0,0,1,38.7,16.75Zm.49-12.82V5.87h1a4.34,4.34,0,0,0,1,0c.06-.65,0-1.27.06-1.92h1.89V2c-.63-.11-1.26.05-1.89-.09-.11-.64,0-1.27-.09-1.9-.33,0-.64,0-.94,0a3,3,0,0,0-1,.06V2H37.24v2ZM56.82,7.81V5.87c-.67,0-1.29,0-2,0V7.85H53V9.77c.66,0,1.28,0,1.91,0,0,.67,0,1.29,0,1.93.67,0,1.3,0,1.93,0,0-.66,0-1.28,0-1.94h1.92v-2ZM38.21,12.65V10.82c-.07,0-.12-.09-.17-.09H36.31v2C37.91,12.75,38,12.81,38.21,12.65ZM52.94,0c0,.65,0,1.27,0,1.89h1.93V0ZM34.29,0C33.64,0,33,0,32.36,0c0,.66,0,1.28,0,1.9h1.92Z"/></g></g></svg>