<svg xmlns="http://www.w3.org/2000/svg" viewBox="0 0 38.83 29.13"><defs><style>.cls-1{fill:#fff;}</style></defs><title>Ресурс 43</title><g id="Слой_2" data-name="Слой 2"><g id="Слой_1-2" data-name="Слой 1"><path class="cls-1" d="M0,2.73s.06,0,.06-.08A3.21,3.21,0,0,1,3,0c.2,0-1.39,0,32.38,0a3.26,3.26,0,0,1,3.46,3.44q0,11.13,0,22.25a3.26,3.26,0,0,1-3.42,3.44h-32A3.26,3.26,0,0,1,.15,26.87c-.05-.16,0-.34-.15-.48ZM35.91,1.68c-.27,0-.48-.07-.69-.07-34.42,0-31.76,0-32.31.1.88.73,14.59,13.34,15.49,14.08a1.54,1.54,0,0,0,2,0C21.22,15.15,34.85,2.69,35.91,1.68ZM15.74,15.61C8.84,21.68,3.07,27.24,2.87,27.46c1.53.09,31.66.1,33.05,0l0-.07c-.63-.49-7.86-7.35-9.27-8.6-.7-.62-1.85-1.63-3.61-3.17C21.71,16.85,20.73,18,19,17.76,17.74,17.57,17.27,17,15.74,15.61ZM14.53,14.5C13,13.16,2.83,3.78,1.66,2.79c-.07,1.59-.05-1.17-.05,13.63,0,10,0,9.23.1,9.86l.17-.13C11.88,16.85,3.15,24.78,14.53,14.5Zm9.79,0c.73.69,1.7,1.5,3.3,2.93,2.46,2.2,9.54,8.84,9.54,8.84,0-.32.07-.59.07-.86,0-24.68,0-21.5-.07-22.61-.61.51.13-.16-3.12,2.81L31.4,8C27.17,11.88,24.41,14.42,24.32,14.51Z"/></g></g></svg>