<svg xmlns="http://www.w3.org/2000/svg" viewBox="0 0 75.01 60.17"><title>Ресурс 22</title><g id="Слой_2" data-name="Слой 2"><g id="Слой_1-2" data-name="Слой 1"><path d="M0,8.27c.5-.82.92-2,2.71-2,.53,0,1.07,0,1.67,0,0-.36,0-.7,0-1A2.43,2.43,0,0,1,6.77,2.84a40,40,0,0,0,13.51-2A18.45,18.45,0,0,1,37.53,4.3a18.48,18.48,0,0,1,8.19-4A21.42,21.42,0,0,1,51,.1a2.58,2.58,0,0,1,1.69.51l.32.67c-.22.71-.3,1.36-2,1.11a15.61,15.61,0,0,0-12.36,3.9V50.17a20.86,20.86,0,0,1,7-3c6.85-1.6,10.59,2.14,20.95,2.56a14.83,14.83,0,0,0,1.73-.12c.12-.12.19-44.2,0-44.41L68.22,5c-4.78.26-7.67-.54-11.2-1.24a1.23,1.23,0,0,1-1.12-1.25,1.38,1.38,0,0,1,.85-1C62,2.28,61.66,3,68.15,2.85a2.39,2.39,0,0,1,2.46,2.34c0,.32,0,.63,0,1,.6.34,2.08-.41,3.47.77A2.56,2.56,0,0,1,75,9c0,5.95,0,12.25,0,18.83l-.62.75h-1l-.54-.54V8.8c-.65-.63-1.43-.25-2.21-.37,0,14.78,0,28,0,41.57,0,1.52-.58,1.58-1.53,1.75-2.65.46-6.46,0-9-.52-6.8-1.28-12-4.65-20.14.82a4.36,4.36,0,0,1-4.1.33c-2-1.06-6.84-5.09-15.31-2.5-4.3,1.31-10.68,2.6-15.16,1.73A1.08,1.08,0,0,1,4.4,50.5c0-.05,0-41.9,0-42a2.8,2.8,0,0,0-2.11.17c-.14.63-.2,42-.07,44.91l.33.36H31a3.29,3.29,0,0,1,3.16,1.91,3.74,3.74,0,0,0,6.45.42C41,55.61,41.69,54,43.9,54H72.54l.27-.3V32.42c.12-.2.5-1.13,1.44-.8A1.19,1.19,0,0,1,75,33q0,10.22,0,20.43A2.6,2.6,0,0,1,73.21,56c-.73.29-26.76.09-29.27.15-1,0-1,.69-1.68,1.62a6,6,0,0,1-10-.73,1.5,1.5,0,0,0-1.58-.9H2.86C.79,56.26.33,54.68,0,54.27Q0,31.27,0,8.27ZM6.6,49.56C12.25,50,17,48.49,21,47.45a18.07,18.07,0,0,1,15.34,2.72V6.25a15.52,15.52,0,0,0-9.09-4c-3.55-.32-5.15.51-8.35,1.28C8.88,6,8.35,4.83,6.6,5.12,6.6,19.91,6.6,34.7,6.6,49.56Z"/><path d="M60.91,9.91a26,26,0,0,0,3.23.43c1.95.06,1.66,2.45.07,2.29a50.24,50.24,0,0,1-9.71-1.94A16,16,0,0,0,43.13,11a1.12,1.12,0,0,1-1.46-.42c-.5-.75,0-1.41.89-1.76C50.27,5.82,54.26,8.86,60.91,9.91Z"/><path d="M41.76,43.43c-.14-.26-.42-.59-.2-1a1.37,1.37,0,0,1,.76-.72A17.66,17.66,0,0,1,54.39,41c10.15,3.06,9.92,1.11,11.08,2.8.07,1.07-.44,1.52-1.29,1.48a15.42,15.42,0,0,1-1.59-.16c-8.86-1.43-8.93-2.53-13.33-2.63C43.86,42.41,43.08,44.74,41.76,43.43Z"/><path d="M64.47,17.33c-2-.29-2.48-.24-3.57-.45-6.9-1.37-8.49-2.34-10.58-2.33-.38,0-.77-.11-1.15-.1a17,17,0,0,0-6.5,1.41,3.17,3.17,0,0,1-.47-.13,1.06,1.06,0,0,1-.29-1.83c.54-.45,5.85-2.92,12.77-.8,9.07,2.77,10.64,1.16,10.81,3C65.56,17,65,17.11,64.47,17.33Z"/><path d="M65.46,25.91a2.36,2.36,0,0,1-.67.67c-6.49-.07-11.93-3.11-16.44-2.76s-4.76,1.52-6.19,1.27a1.12,1.12,0,0,1,.12-2.1c8.8-3.56,12.6.6,22,1.4C65.21,24.46,65.56,25,65.46,25.91Z"/><path d="M65.48,30.68l-.53.57c-3.64.23-11.71-2.33-13.43-2.58a14.18,14.18,0,0,0-4.13-.07,15.71,15.71,0,0,0-4,1c-1.39.6-1.7-.27-2-.93l.39-.81a17,17,0,0,1,8.86-1.56c3.6.23,5.05,1.67,13.81,2.76a1.1,1.1,0,0,1,1,1C65.5,30.23,65.48,30.38,65.48,30.68Z"/><path d="M41.47,38.13a1.37,1.37,0,0,1,1-1.21,16.29,16.29,0,0,1,4-1.11A13.61,13.61,0,0,1,49,35.59c6.94.43,3.9,1.25,16,2.93l.49.48c0,.3,0,.44,0,.59a1.06,1.06,0,0,1-1.09,1,47.33,47.33,0,0,1-9.93-1.92A15.88,15.88,0,0,0,43.38,39L43,39.1a1.07,1.07,0,0,1-1.4-.55C41.57,38.42,41.53,38.28,41.47,38.13Z"/><path d="M42.13,20.4c-.88-.68-.92-1.59.1-2,6.67-2.83,10.71-1,16,.34a35.46,35.46,0,0,0,6.14,1c1.43.15,1.43,2.15.1,2.2a40.61,40.61,0,0,1-8.9-1.56c-4.08-1.18-7.75-1.92-12.11-.12A2.3,2.3,0,0,1,42.13,20.4Z"/><path d="M64.87,33.69l.6.66v.86c-.37.81-1.06.81-1.76.72-3.73-.44-4.64-.67-11-2.36a15,15,0,0,0-9.73.89c-1,0-1.14-.09-1.46-1a1.29,1.29,0,0,1,1-1.2,20,20,0,0,1,4.25-1.14,18.85,18.85,0,0,1,7.42.52,51.15,51.15,0,0,0,10.62,2.18Z"/><path d="M10.87,10.34c9.16-.67,13-4.93,21.71-1.45a1.15,1.15,0,0,1-.07,2.27,1.5,1.5,0,0,1-.63-.13A14.87,14.87,0,0,0,25,9.86c-3.19,0-5.68,1.73-14.12,2.77C9.32,12.82,8.79,10.49,10.87,10.34Z"/><path d="M33.24,43.45c-1.22,1.12-1.61-.5-5.68-.86-5.19-.46-7.13,1.28-12.81,2.16-1.24.19-2.48.38-3.73.56a1.2,1.2,0,0,1-1.41-.65c-.1-.22-.09-.05-.09-.74.24-.76.87-.86,1.47-.9,5.42-.37,9.82-2.33,12.6-2.61a10.51,10.51,0,0,1,3.34-.09,16.83,16.83,0,0,1,5.9,1.39A1.11,1.11,0,0,1,33.24,43.45Z"/><path d="M10.55,17.33c-.44-.18-1.13-.35-1-1.29.2-1.65,1.38-.29,9.66-2.62,4.8-1.35,8.08-1.89,13.46.2a1.21,1.21,0,0,1,.87,1.14c-.08.84-.68,1-1.13,1.12A16.69,16.69,0,0,0,27,14.55c-.46,0-.92-.12-1.37-.09-4.68.34-4.86,1.2-10.66,2.27C13.4,17,12.3,17,10.55,17.33Z"/><path d="M10.08,26.59l-.53-.52c-.12-2.58.85-1,8.25-2.95,4.25-1.13,5.4-1.48,7.28-1.51a18.1,18.1,0,0,1,3.27.14c1,.16,4.28.86,4.89,1.61a1,1,0,0,1,0,1.44,2.94,2.94,0,0,1-.32.27,2.24,2.24,0,0,1-1.37-.16C23.76,21.71,19,26.45,10.08,26.59Z"/><path d="M33.5,33.53l-.06.15a1.09,1.09,0,0,1-1.55.71c-3.08-1.07-5.56-2.07-11.63-.28a55.22,55.22,0,0,1-8.92,1.82,7,7,0,0,1-1.06,0l-.74-.6v-1l.5-.48C20.41,32.69,20.06,31,26.22,31a17.08,17.08,0,0,1,6.22,1.24A1.32,1.32,0,0,1,33.5,33.53Z"/><path d="M32.91,20.39c-1.38.29-2.4-1-5.7-1.16a13.64,13.64,0,0,0-5.74.53c-2.65.78-8.11,2.22-10.84,2.16a1.1,1.1,0,0,1-.09-2.21c.94-.11,1.88-.18,2.81-.32,6.56-1,11.42-4.3,19.18-1.16.83.34,1.34,1,.75,1.79A3.47,3.47,0,0,1,32.91,20.39Z"/><path d="M10.07,31.27l-.52-.52c-.11-2.18.79-1.44,4.57-2.13,6.73-1.24,7.3-2.34,12-2.34a16.77,16.77,0,0,1,7.07,1.61l.39.78c-1.07,3.39-3.48-2.25-12.83.66A41.1,41.1,0,0,1,10.07,31.27Z"/><path d="M33.54,38.13c-.79,2.06-1.51.55-4.81,0-5.29-.94-6.56.51-14.22,2.07-.59.12-3.56.46-3.67.47-.92,0-1.38-.44-1.29-1.5a2.47,2.47,0,0,1,.63-.66c9.16-1.07,10.73-2.72,14.51-2.82a17,17,0,0,1,7.13,1C32.78,37,33.43,37.12,33.54,38.13Z"/></g></g></svg>