<svg xmlns="http://www.w3.org/2000/svg" viewBox="0 0 46.12 40.2"><defs><style>.cls-1{fill:#fff;}</style></defs><title>Ресурс 42</title><g id="Слой_2" data-name="Слой 2"><g id="Слой_1-2" data-name="Слой 1"><path class="cls-1" d="M46.12,1c-.9,2.22-12.06,33.67-12.62,35.06a.76.76,0,0,1-1.14.4C27.32,33.72,17,28,15.79,27.39c0,.05-.08.1-.09.15-.85,7.31-1.08,9.21-1.12,9.82.64-.61,4.91-4.91,5.16-5.15a1.27,1.27,0,0,1,.86-.47.89.89,0,0,1,.65.51v.5c-.6.73.84-.77-7,7.09-.51.51-.73.35-1.14.24a1.64,1.64,0,0,1-.4-1s-3-14.57-3.1-15.19c-1.49-.84-8-4.52-9.07-5.11-.71-.38-.86-1.16.16-1.55C47-.49,44.76-.15,45.74,0l.38.42Zm-10.9,7.2.21-.1v0l-.18.09-.09.09c-.28.07-22,14.18-24,15.49,2.38,11.78,2.09,10.48,2.26,10.8l1-8.79C17.47,23.18,34.61,8.87,35.22,8.21Zm3.25-4c-.32,0-35.87,13.89-36,13.93l7.75,4.37c.38-.21,27.85-17.9,28.22-18.31l.16,0,0-.06ZM32.38,34.78c.23-.63,11-30.73,11.31-31.57l-.06,0L16.45,26C16.68,26.17,15.23,25.37,32.38,34.78Z"/></g></g></svg>