<svg xmlns="http://www.w3.org/2000/svg" viewBox="0 0 40 40"><defs><style>.cls-1{fill:#fff;}</style></defs><title>Ресурс 20</title><g id="Слой_2" data-name="Слой 2"><g id="Слой_1-2" data-name="Слой 1"><path class="cls-1" d="M35.17,0A4.86,4.86,0,0,1,40,5Q40,20,40,35.09A4.88,4.88,0,0,1,34.83,40H4.94A4.85,4.85,0,0,1,.08,35.86C0,35.19,0,37.2,0,4.91A4.82,4.82,0,0,1,4.18.09C5.55,0,35.07,0,35.17,0Zm-29,13.68a1.71,1.71,0,0,0,.27,1.21,47.88,47.88,0,0,0,2.24,4.42c5,8.83,8,9.09,12.32,9.15a7.24,7.24,0,0,0,.85-.08c.7-.47.41-.79.6-2.12a2.9,2.9,0,0,1,.23-.78,1,1,0,0,1,1.12-.66,4.16,4.16,0,0,1,1.54,1.24c1.44,1.63,1.91,2.39,3.72,2.41,4.4,0,5,.1,4.92-.9a2.23,2.23,0,0,0-.49-1.14c-1.51-2.23-3.74-3.56-4.07-4.55v-.61c.15-.25.29-.52.46-.77,1.31-1.89,5.9-7.13,3.25-7.14H28.23c-.66,0-.85.48-1.1,1.1-.84,2.07-3.13,6.24-4.2,5.95a1.11,1.11,0,0,1-.55-.87,6.11,6.11,0,0,1-.09-.76c0-.72,0-1.44.06-2.17.07-.88,0-1.77,0-2.66a1,1,0,0,0-.57-.93,2.36,2.36,0,0,0-.53-.23,10.79,10.79,0,0,0-2.14-.29c-1.56,0-3.71.5-3.84,1.09,0,0,0,.07.06.08a1.16,1.16,0,0,0,.22.09c1.29.34,1.44,1.86,1.53,3.18,0,.33-.06.67-.07,1a7.52,7.52,0,0,1-.21,1.47c-.18.85-.58,1.23-1.3.73-1.42-1-3.32-5.35-3.73-6.23a.92.92,0,0,0-.89-.55H6.81A.77.77,0,0,0,6.12,13.69Z"/></g></g></svg>