<svg xmlns="http://www.w3.org/2000/svg" viewBox="0 0 41.59 41.59"><title>Ресурс 36</title><g id="Слой_2" data-name="Слой 2"><g id="Слой_1-2" data-name="Слой 1"><path d="M10.1,38.63l-.37.09c-11,3.38-9.78,4.69-6.87-5.84l.3-1.06a20.76,20.76,0,1,1,6.95,6.81Zm-7.34.53c.46-.06,6.63-2,7.07-2.13a1,1,0,0,1,.85.09c13.52,8.24,30.77-2.39,29.24-18A19.1,19.1,0,0,0,32.7,5.74C16.15-7.41-5.58,12,3.71,29.53,5.21,32.36,5.22,30.12,2.76,39.16ZM15.23,17.88c.46,2.66,6,7,8.76,8.12,1-.18,2.54-3,3.18-3.46.85-.66,1.91-.15,2.8.43,5,3.26,5,2.63,4.69,4.12C32.1,38.62,13.89,33.58,8.12,18.8,6,13.44,10,8.06,11.41,8c2.68-.19,2.47-.92,5.28,4.88C17.74,15,17,15.92,15.23,17.88Zm7,9c-5.09-2.8-10.08-8.16-8.2-10.07,1.26-1.28,1.85-2,1.38-3a34.3,34.3,0,0,0-2.31-4.34,6.23,6.23,0,0,0-1.47.07c-2.18,2.51-3.26,5.68-2,8.75,4.26,10.58,14.29,15.18,20,13.1,2.21-.8,3-2.47,3.49-4.55-.51-.34-4.23-2.71-5-3C25.09,28,24.34,28.05,22.23,26.89Z"/></g></g></svg>